# xmcd
#
# Track frame offsets:
#	150
#	18304
#	38458
#
# Disc length: 694 seconds
#
# Revision: 0
# Processed by: cddbd v1.5.1PL2 Copyright (c) Steve Scherf et al.
# Submitted via: dBpowerAMP V4.0
#
DISCID=1402b403
DTITLE=Antony and The Johnsons - You Are My Sister CD2
DYEAR=1900
DGENRE=Chamber Pop
TTITLE0=You Are My Sister
TTITLE1=Forest of Love
TTITLE2=Paddy's Gone
EXTD=
EXTT0=
EXTT1=
EXTT2=
PLAYORDER=
